<svg xmlns="http://www.w3.org/2000/svg" viewBox="0 0 512 512" role="img" aria-labelledby="title description">
  <title id="title">Comprimage</title>
  <desc id="description">Four image-frame corners compressing toward a central pixel</desc>
  <rect width="512" height="512" rx="112" fill="#585ff5"/>
  <path fill="#fff" d="M120 104h112v56h-72v72h-56V120a16 16 0 0 1 16-16Zm272 0H280v56h72v72h56V120a16 16 0 0 0-16-16ZM104 392V280h56v72h72v56H120a16 16 0 0 1-16-16Zm304 0V280h-56v72h-72v56h112a16 16 0 0 0 16-16Z"/>
  <rect x="216" y="216" width="80" height="80" rx="20" fill="#fff"/>
</svg>
