<svg xmlns="http://www.w3.org/2000/svg" width="1200" height="630" viewBox="0 0 1200 630" role="img" aria-labelledby="title description">
  <title id="title">Comprimage</title>
  <desc id="description">Private image tools. Nothing uploaded. Compress, resize, convert, and batch process images locally.</desc>
  <rect width="1200" height="630" fill="#fdfcfc"/>

  <g font-family="'JetBrains Mono', ui-monospace, monospace">
    <text x="80" y="104" fill="#24603f" font-size="32" font-weight="700" letter-spacing="-1.2">[comprimage]</text>
    <text x="80" y="250" fill="#201d1d" font-size="56" font-weight="800" letter-spacing="-2">Private image tools.</text>
    <text x="80" y="326" fill="#3f9465" font-size="56" font-weight="800" letter-spacing="-2">Nothing uploaded.</text>
    <line x1="80" y1="394" x2="696" y2="394" stroke="#201d1d" stroke-opacity=".12" stroke-width="2"/>
    <text x="80" y="450" fill="#424245" font-size="23" font-weight="600">compress / resize / convert / batch</text>
    <rect x="80" y="514" width="12" height="12" rx="2" fill="#3f9465"/>
    <text x="108" y="526" fill="#646262" font-size="19" font-weight="500">processed locally in your browser</text>
  </g>

  <g transform="translate(824 135)">
    <rect width="280" height="280" rx="17.5" fill="#3f9465"/>
    <path fill="#fdfcfc" d="M52.5 52.5h70v35h-35v35h-35v-70Zm175 0h-70v35h35v35h35v-70Zm-175 175h70v-35h-35v-35h-35v70Zm175 0h-70v-35h35v-35h35v70Z"/>
    <path fill="#fdfcfc" d="M122.5 122.5h35v35h-35z"/>
  </g>
</svg>
