<svg xmlns="http://www.w3.org/2000/svg" width="1200" height="630" viewBox="0 0 1200 630" role="img" aria-labelledby="title description">
  <title id="title">Comprimage</title>
  <desc id="description">Private image tools. Nothing uploaded.</desc>
  <rect width="1200" height="630" fill="#f8f8fb"/>
  <rect x="56" y="56" width="1088" height="518" rx="32" fill="#ffffff" stroke="#dedfeb" stroke-width="2"/>
  <g transform="translate(104 173) scale(.555)">
    <rect width="512" height="512" rx="112" fill="#585ff5"/>
    <path fill="#ffffff" d="M120 104h112v56h-72v72h-56V120a16 16 0 0 1 16-16Zm272 0H280v56h72v72h56V120a16 16 0 0 0-16-16ZM104 392V280h56v72h72v56H120a16 16 0 0 1-16-16Zm304 0V280h-56v72h-72v56h112a16 16 0 0 0 16-16Z"/>
    <rect x="216" y="216" width="80" height="80" rx="20" fill="#ffffff"/>
  </g>
  <g font-family="Inter, ui-sans-serif, system-ui, -apple-system, BlinkMacSystemFont, 'Segoe UI', sans-serif">
    <text x="444" y="241" fill="#202235" font-size="76" font-weight="750" letter-spacing="-2">Comprimage</text>
    <text x="444" y="326" fill="#393b50" font-size="40" font-weight="650">Private image tools.</text>
    <text x="444" y="382" fill="#585ff5" font-size="40" font-weight="650">Nothing uploaded.</text>
    <line x1="444" y1="430" x2="1072" y2="430" stroke="#dedfeb" stroke-width="2"/>
    <text x="444" y="486" fill="#686a7d" font-size="25" font-weight="500">Compress · Resize · Convert · Batch</text>
  </g>
</svg>
